<?xml version="1.0" encoding="UTF-8" standalone="no"?>
<svg
   viewBox="0 0 24 24"
   version="1.1"
   id="svg4"
   sodipodi:docname="account-box.svg"
   inkscape:version="1.1.2 (b8e25be833, 2022-02-05)"
   xmlns:inkscape="http://www.inkscape.org/namespaces/inkscape"
   xmlns:sodipodi="http://sodipodi.sourceforge.net/DTD/sodipodi-0.dtd"
   xmlns="http://www.w3.org/2000/svg"
   xmlns:svg="http://www.w3.org/2000/svg">
  <defs
     id="defs8" />
  <sodipodi:namedview
     id="namedview6"
     pagecolor="#ffffff"
     bordercolor="#666666"
     borderopacity="1.0"
     inkscape:pageshadow="2"
     inkscape:pageopacity="0.0"
     inkscape:pagecheckerboard="0"
     showgrid="false"
     inkscape:zoom="34.625"
     inkscape:cx="12"
     inkscape:cy="11.98556"
     inkscape:window-width="1920"
     inkscape:window-height="1017"
     inkscape:window-x="-8"
     inkscape:window-y="-8"
     inkscape:window-maximized="1"
     inkscape:current-layer="svg4" />
  <path
     d="M6,17C6,15 10,13.9 12,13.9C14,13.9 18,15 18,17V18H6M15,9A3,3 0 0,1 12,12A3,3 0 0,1 9,9A3,3 0 0,1 12,6A3,3 0 0,1 15,9M3,5V19A2,2 0 0,0 5,21H19A2,2 0 0,0 21,19V5A2,2 0 0,0 19,3H5C3.89,3 3,3.9 3,5Z"
     id="path2" />
  <path
     style="fill:#a0a0a0;stroke:none;stroke-width:0.0288809"
     d="M 4.5920578,20.939379 C 3.9049052,20.787439 3.3537895,20.291862 3.1138177,19.610108 L 3.032491,19.379061 V 12.01444 4.6498195 L 3.1163093,4.3940836 C 3.3144399,3.7895724 3.7900842,3.314284 4.395502,3.1158479 L 4.6498195,3.032491 H 12 19.350181 l 0.255736,0.083818 c 0.59934,0.1964359 1.062014,0.656875 1.280043,1.2738596 l 0.08155,0.2307697 V 12 19.379061 l -0.08155,0.23077 c -0.214728,0.607645 -0.669238,1.06529 -1.264265,1.272986 l -0.242634,0.08469 -7.306859,0.0051 c -5.9788541,0.0042 -7.3383532,-0.0019 -7.4801442,-0.03322 z M 18.001463,17.33574 c -0.0084,-0.587872 -0.01692,-0.691713 -0.06844,-0.833979 C 17.615224,15.624071 16.446555,14.829382 14.73199,14.325074 13.49734,13.961924 12.177054,13.8154 11.191332,13.932136 9.6553176,14.114042 8.1450239,14.610419 7.1624509,15.256279 6.8285551,15.475754 6.3743417,15.916958 6.2307062,16.161338 6.0255573,16.510376 6.0090987,16.593621 5.998513,17.33574 l -0.00958,0.67148 H 12 18.011061 Z m -5.380524,-5.390428 c 0.597596,-0.123989 1.058646,-0.376525 1.503139,-0.823333 0.417292,-0.419466 0.643608,-0.809623 0.798552,-1.3766641 0.05793,-0.212006 0.0664,-0.3088976 0.06548,-0.748925 C 14.986829,8.3871587 14.939636,8.1706068 14.701734,7.6823105 14.522644,7.3147261 14.339888,7.0624904 14.069687,6.8099726 12.760593,5.5865547 10.67515,5.7575911 9.5958071,7.1768953 9.4075801,7.4244084 9.1591922,7.9391287 9.0801383,8.2454874 8.986039,8.6101528 8.9714542,9.2343021 9.0483396,9.6063139 c 0.11301,0.5468011 0.3652035,1.0342031 0.7428203,1.4356121 0.2529821,0.268922 0.4471161,0.423347 0.7471591,0.594334 0.235412,0.134156 0.665397,0.28941 0.91776,0.331374 0.2855,0.04748 0.883703,0.03601 1.16486,-0.02232 z"
     id="path47" />
  <path
     style="fill:#ffffff;stroke:none;stroke-width:0.0288809"
     d="m 4.6279428,20.921678 c -0.5853709,-0.08571 -1.243286,-0.631013 -1.4540689,-1.205177 -0.027313,-0.0744 -0.067099,-0.179219 -0.088413,-0.23293 -0.031994,-0.08063 -0.039992,-1.386361 -0.045861,-7.487365 -0.00391,-4.0643391 1.03e-5,-7.3929569 0.00871,-7.396928 0.0087,-0.00397 0.052549,-0.1087406 0.09744,-0.232821 0.20641,-0.5705288 0.6507993,-1.0145379 1.2223515,-1.2213059 0.1231752,-0.044561 0.2272036,-0.088138 0.2311742,-0.09684 0.00397,-0.0087 3.3440428,-0.00932 7.4223824,-0.00138 l 7.415163,0.01444 0.194702,0.075749 c 0.571851,0.2224802 0.969513,0.6138753 1.209704,1.1906428 l 0.110064,0.2642939 8.89e-4,7.4011402 8.87e-4,7.40114 -0.101644,0.252072 c -0.239858,0.594839 -0.642033,0.993215 -1.228941,1.217334 l -0.233917,0.08932 -7.297172,-0.0035 c -4.0134421,-0.002 -7.3719956,-0.01449 -7.4634502,-0.02789 z M 18.019051,17.566787 c -0.02921,-1.013224 -0.02628,-0.986809 -0.1347,-1.214141 -0.529317,-1.109876 -2.485367,-2.082023 -4.815759,-2.393407 -0.632862,-0.08456 -1.61507,-0.09166 -2.108303,-0.01524 -1.2640432,0.19585 -2.340544,0.52035 -3.2346572,0.975051 -0.5151186,0.261964 -0.7615524,0.437807 -1.127639,0.804628 -0.358958,0.359679 -0.5442403,0.646154 -0.5607073,0.866939 -0.00453,0.0608 -0.015255,0.121883 -0.023824,0.135748 -0.00857,0.01386 -0.016793,0.213505 -0.018275,0.443646 -0.00148,0.230141 -0.010921,0.512661 -0.020975,0.627824 l -0.01828,0.209386 H 11.993841 18.03175 Z M 12.84575,11.902363 c 0.54272,-0.162513 0.894765,-0.378764 1.309958,-0.80467 0.399503,-0.409811 0.571622,-0.693891 0.748191,-1.2348771 0.07036,-0.2155651 0.08146,-0.3000514 0.09111,-0.6931408 0.01794,-0.7308985 -0.05007,-1.057222 -0.333196,-1.5986865 C 14.291651,6.8630619 13.635624,6.3345201 12.823105,6.0895962 12.581293,6.016705 12.524933,6.0111041 12.01444,6.0092323 c -0.492687,-0.00181 -0.573811,0.00498 -0.794223,0.066434 -0.856983,0.238941 -1.528338,0.7844032 -1.9187851,1.5589745 -0.042833,0.084973 -0.071126,0.1612494 -0.062872,0.1695032 0.00825,0.00825 -0.00274,0.032758 -0.024439,0.054453 -0.057164,0.057164 -0.1533253,0.3674284 -0.1913863,0.617507 -0.019473,0.1279454 -0.027236,0.399057 -0.019021,0.6642599 0.014831,0.4788162 0.068188,0.7275896 0.2381094,1.1101811 0.2999013,0.675253 0.938438,1.287299 1.618522,1.551376 0.460348,0.178754 0.579616,0.197555 1.182976,0.18648 0.491759,-0.009 0.575079,-0.01796 0.802429,-0.08604 z"
     id="path86" />
  <path
     style="fill:#ffffff;stroke-width:0.0288809"
     d="M 10.974729,20.924468 4.534296,20.909747 4.3737114,20.844741 C 3.8384814,20.628073 3.4005348,20.210013 3.1862418,19.711191 L 3.093188,19.494585 3.0736079,17.805054 C 3.0628389,16.875812 3.0524312,13.545539 3.0504797,10.404447 L 3.0469314,4.6933708 3.1082905,4.5127504 C 3.3479308,3.8073309 3.8056489,3.3508613 4.5198556,3.1050356 l 0.1877256,-0.064614 7.3771488,0.020822 7.377148,0.020823 0.175198,0.075152 c 0.569906,0.2444624 0.910457,0.5757013 1.168091,1.1361509 l 0.110753,0.2409267 0.01631,7.4176818 0.01631,7.417682 -0.103833,0.248044 c -0.190199,0.45436 -0.502352,0.841471 -0.836385,1.037227 -0.07179,0.04207 -0.246204,0.126366 -0.387582,0.187317 l -0.257051,0.110821 -0.974264,-0.0069 c -0.535845,-0.0038 -3.872459,-0.01356 -7.414698,-0.02166 z m 7.059955,-3.256598 c -7.8e-4,-0.186643 -0.01228,-0.517468 -0.02555,-0.735167 -0.02137,-0.35054 -0.03395,-0.416613 -0.109919,-0.577617 -0.658992,-1.396591 -3.590928,-2.553031 -6.260223,-2.469213 -1.443245,0.04532 -3.3596281,0.615535 -4.4552391,1.325649 C 7.0488297,15.29897 6.8162648,15.501036 6.5967994,15.7215 6.295116,16.024556 6.2148806,16.124071 6.1249239,16.306765 l -0.1083858,0.220123 -0.025346,0.54522 c -0.01394,0.299871 -0.030547,0.632946 -0.036904,0.740166 l -0.011557,0.194946 h 6.0466859 6.046685 z m -5.061399,-5.795659 c 0.375955,-0.127052 0.663529,-0.288301 0.947293,-0.531167 0.431662,-0.369448 0.728806,-0.772728 0.907595,-1.231775 0.149174,-0.3830111 0.175437,-0.5457025 0.175437,-1.0867619 0,-0.5163373 -0.03918,-0.7713302 -0.171057,-1.1133013 C 14.499821,7.0464023 13.796204,6.392244 12.876995,6.0911058 12.625802,6.0088136 12.60887,6.0072202 11.98556,6.0072202 h -0.635379 l -0.266355,0.093046 C 10.57629,6.2775656 10.242679,6.4795804 9.8817851,6.828149 9.6488777,7.0531027 9.3698027,7.4382787 9.273375,7.66787 9.243353,7.73935 9.194701,7.8507607 9.1652583,7.9154487 c -0.029443,0.064688 -0.080957,0.2260675 -0.1144774,0.3586206 -0.054839,0.2168601 -0.05952,0.2976693 -0.046719,0.806573 0.016332,0.6493251 0.052776,0.8202389 0.2683916,1.2587077 0.1629407,0.331351 0.3534527,0.583306 0.6616512,0.875041 0.2887843,0.273359 0.5761253,0.459555 0.9290203,0.602004 0.411184,0.165978 0.530091,0.183265 1.194637,0.173675 l 0.592057,-0.0085 z"
     id="path162" />
  <path
     style="fill:#ffffff;stroke-width:0.0288809"
     d="M 10.960289,20.924469 4.534296,20.909747 4.3737114,20.844741 C 3.8391736,20.628354 3.4047039,20.214055 3.1858094,19.711989 l -0.094785,-0.217404 -0.018526,-1.67509 c -0.010189,-0.9213 -0.02011,-4.251573 -0.022046,-7.400607 L 3.0469314,4.6933708 3.1082905,4.5127504 C 3.2328372,4.1461274 3.3919187,3.8837133 3.6379851,3.6389892 3.8813,3.3970014 4.0939626,3.2650521 4.4765343,3.1187004 l 0.2021661,-0.077338 7.3898426,0.020331 7.389843,0.020331 0.195303,0.080537 c 0.533598,0.2200381 0.896956,0.5768986 1.151397,1.1308075 l 0.110671,0.2409267 0.01974,7.4096994 0.01973,7.409698 -0.107175,0.256028 c -0.270286,0.645675 -0.67136,1.03 -1.339026,1.283103 -0.151158,0.0573 -0.206362,0.05988 -1.140794,0.05329 -0.540072,-0.0038 -3.873646,-0.01355 -7.407942,-0.02165 z m 7.074395,-3.256599 c -7.8e-4,-0.186643 -0.01241,-0.5197 -0.02584,-0.740126 -0.02337,-0.383588 -0.02907,-0.40994 -0.132862,-0.614425 -0.701489,-1.382043 -3.605968,-2.512292 -6.236995,-2.427063 -1.431907,0.04639 -3.3917425,0.628956 -4.4476533,1.322088 -0.1371592,0.09004 -0.3786018,0.299302 -0.5941628,0.514982 -0.3005098,0.300676 -0.3817063,0.400942 -0.4709395,0.581545 l -0.1078236,0.218229 -0.02662,0.575995 c -0.014641,0.316798 -0.032171,0.650724 -0.038957,0.74206 l -0.012337,0.166065 h 6.0478022 6.047803 z m -5.182698,-5.753841 c 0.530828,-0.169418 0.892713,-0.389531 1.284417,-0.781236 0.302548,-0.302548 0.538506,-0.646974 0.672175,-0.981168 C 14.981337,9.7196973 14.989193,9.6699939 14.9889,9.0108303 14.988588,8.3127876 14.956708,8.1491445 14.729594,7.6798371 14.354076,6.9038695 13.67779,6.338737 12.793951,6.0623353 12.646991,6.0163766 12.525264,6.0081863 11.98556,6.0079443 l -0.635379,-2.888e-4 -0.27207,0.094742 C 10.54908,6.2866198 10.150038,6.5402053 9.7920988,6.9196396 9.5813031,7.1430943 9.361511,7.4604084 9.2736552,7.6681187 9.2434796,7.7394602 9.1952999,7.849816 9.1665895,7.9133539 9.050623,8.1699957 9.016919,8.3674071 9.0038201,8.8667359 c -0.00963,0.366977 -0.00129,0.5584664 0.032929,0.7567835 0.1634741,0.9472836 0.9009574,1.8251286 1.8513379,2.2036956 0.391154,0.155809 0.514143,0.172792 1.169675,0.161517 0.515348,-0.0089 0.618251,-0.01854 0.794224,-0.07471 z"
     id="path238" />
</svg>
