<?xml version="1.0" encoding="UTF-8" standalone="no"?>
<svg
   viewBox="0 0 24 24"
   version="1.1"
   id="svg4"
   sodipodi:docname="account-group.svg"
   inkscape:version="1.1.2 (b8e25be833, 2022-02-05)"
   xmlns:inkscape="http://www.inkscape.org/namespaces/inkscape"
   xmlns:sodipodi="http://sodipodi.sourceforge.net/DTD/sodipodi-0.dtd"
   xmlns="http://www.w3.org/2000/svg"
   xmlns:svg="http://www.w3.org/2000/svg">
  <defs
     id="defs8" />
  <sodipodi:namedview
     id="namedview6"
     pagecolor="#ffffff"
     bordercolor="#666666"
     borderopacity="1.0"
     inkscape:pageshadow="2"
     inkscape:pageopacity="0.0"
     inkscape:pagecheckerboard="0"
     showgrid="false"
     inkscape:zoom="34.625"
     inkscape:cx="12"
     inkscape:cy="11.98556"
     inkscape:window-width="1920"
     inkscape:window-height="1017"
     inkscape:window-x="-8"
     inkscape:window-y="-8"
     inkscape:window-maximized="1"
     inkscape:current-layer="svg4" />
  <path
     d="M12,5.5A3.5,3.5 0 0,1 15.5,9A3.5,3.5 0 0,1 12,12.5A3.5,3.5 0 0,1 8.5,9A3.5,3.5 0 0,1 12,5.5M5,8C5.56,8 6.08,8.15 6.53,8.42C6.38,9.85 6.8,11.27 7.66,12.38C7.16,13.34 6.16,14 5,14A3,3 0 0,1 2,11A3,3 0 0,1 5,8M19,8A3,3 0 0,1 22,11A3,3 0 0,1 19,14C17.84,14 16.84,13.34 16.34,12.38C17.2,11.27 17.62,9.85 17.47,8.42C17.92,8.15 18.44,8 19,8M5.5,18.25C5.5,16.18 8.41,14.5 12,14.5C15.59,14.5 18.5,16.18 18.5,18.25V20H5.5V18.25M0,20V18.5C0,17.11 1.89,15.94 4.45,15.6C3.86,16.28 3.5,17.22 3.5,18.25V20H0M24,20H20.5V18.25C20.5,17.22 20.14,16.28 19.55,15.6C22.11,15.94 24,17.11 24,18.5V20Z"
     id="path2" />
  <path
     style="fill:#ffffff;stroke-width:0.0288809"
     d="M 4.6209386,13.959654 C 3.6364736,13.833924 2.7662976,13.205976 2.3255856,12.303249 1.9152119,11.462665 1.9140247,10.538334 2.322248,9.7046494 2.717722,8.8970019 3.3987758,8.3459356 4.3122963,8.0944265 c 0.1838122,-0.050607 0.3014874,-0.061022 0.6840936,-0.060547 0.4061109,5.046e-4 0.4966348,0.00977 0.7472,0.076439 0.1568084,0.041726 0.3931957,0.128183 0.5253054,0.1921277 l 0.2401993,0.1162632 -0.016544,0.3538221 c -0.052445,1.121612 0.2931047,2.3507695 0.9260058,3.2939025 0.1044655,0.155671 0.1969241,0.294344 0.2054634,0.308161 0.00854,0.01382 -0.061367,0.139878 -0.1553462,0.280137 -0.6297161,0.939812 -1.7362706,1.446871 -2.847735,1.304922 z"
     id="path84" />
  <path
     style="fill:#ffffff;stroke-width:0.0288809"
     d="M 11.595668,12.463028 C 10.16604,12.277151 9.0050225,11.268192 8.6368758,9.8917487 8.3132138,8.6816269 8.6595867,7.4177088 9.558954,6.5270758 c 1.353756,-1.3406093 3.53548,-1.3406468 4.882713,-8.4e-5 1.274386,1.2680751 1.392389,3.2420156 0.277478,4.6415932 -0.503757,0.632381 -1.19903,1.062034 -2.004312,1.238594 -0.290833,0.06377 -0.84542,0.09144 -1.119165,0.05585 z"
     id="path123" />
  <path
     style="fill:#ffffff;stroke-width:0.0288809"
     d="m 18.551206,13.948204 c -0.617927,-0.09626 -1.15377,-0.366963 -1.622489,-0.819674 -0.224265,-0.216606 -0.58268,-0.705486 -0.552736,-0.753935 0.0085,-0.01382 0.100997,-0.15249 0.205463,-0.308161 0.632901,-0.943133 0.978451,-2.1722904 0.926006,-3.2939024 l -0.01654,-0.3538221 0.2402,-0.1162632 c 0.132109,-0.063945 0.368497,-0.1504022 0.525305,-0.1921277 0.250565,-0.066673 0.341089,-0.075934 0.7472,-0.076439 0.513682,-6.382e-4 0.694774,0.034255 1.158058,0.2231334 0.453588,0.1849261 0.931183,0.5651662 1.255161,0.9993044 0.157098,0.2105141 0.385911,0.6844877 0.458249,0.9492366 0.28533,1.044265 -0.0036,2.124796 -0.774153,2.895371 -0.492479,0.492478 -1.0753,0.777144 -1.764427,0.861793 -0.306886,0.0377 -0.46941,0.03469 -0.785292,-0.01451 z"
     id="path162" />
  <path
     style="fill:#ffffff;stroke-width:0.0288809"
     d="m 5.5023055,19.155235 c 2.753e-4,-0.464621 0.013393,-0.96718 0.02915,-1.116798 0.070269,-0.667208 0.4422385,-1.306169 1.0830815,-1.860493 0.3333208,-0.288321 0.6872519,-0.513484 1.2121774,-0.771161 0.8659717,-0.425091 1.7326628,-0.668273 2.9458486,-0.826568 0.52745,-0.06882 1.927424,-0.06882 2.454874,0 1.45457,0.18979 2.607349,0.563933 3.552346,1.15294 0.857818,0.534668 1.434497,1.233306 1.638698,1.985257 0.05252,0.193412 0.06028,0.327163 0.07247,1.249097 L 18.504604,20 h -6.5014 -6.5013989 z"
     id="path201" />
  <path
     style="fill:#ffffff;stroke-width:0.0288809"
     d="m 0.01486732,19.169675 c 4.7775e-4,-0.929233 0.01743174,-1.056191 0.1856513,-1.39023 0.40428999,-0.802813 1.47840928,-1.498694 2.92901348,-1.897597 0.3877621,-0.106631 1.1301724,-0.253278 1.2034782,-0.237721 0.032548,0.0069 0.00713,0.05956 -0.098718,0.204499 -0.2998758,0.410624 -0.5392162,0.970825 -0.6692878,1.566536 -0.057204,0.261989 -0.064349,0.395421 -0.07694,1.436824 L 3.4741845,20 H 1.7443124 0.01444043 Z"
     id="path240" />
  <path
     style="fill:#ffffff;stroke-width:0.0288809"
     d="m 20.511936,18.851986 c -0.01259,-1.041403 -0.01974,-1.174835 -0.07694,-1.436824 -0.130095,-0.595821 -0.369507,-1.156137 -0.66935,-1.566536 -0.135261,-0.185134 -0.139223,-0.19563 -0.07687,-0.2036 0.03616,-0.0046 0.260685,0.03041 0.498953,0.07785 1.802929,0.358969 3.140368,1.120519 3.611755,2.056569 0.16822,0.334039 0.185174,0.460997 0.185652,1.39023 L 23.98556,20 h -1.729872 -1.729872 z"
     id="path279" />
</svg>
