<?xml version="1.0" encoding="UTF-8" standalone="no"?>
<svg
   viewBox="0 0 24 24"
   version="1.1"
   id="svg931"
   sodipodi:docname="clock-time-three.svg"
   inkscape:version="1.1.2 (b8e25be833, 2022-02-05)"
   xmlns:inkscape="http://www.inkscape.org/namespaces/inkscape"
   xmlns:sodipodi="http://sodipodi.sourceforge.net/DTD/sodipodi-0.dtd"
   xmlns="http://www.w3.org/2000/svg"
   xmlns:svg="http://www.w3.org/2000/svg">
  <defs
     id="defs935" />
  <sodipodi:namedview
     id="namedview933"
     pagecolor="#ffffff"
     bordercolor="#666666"
     borderopacity="1.0"
     inkscape:pageshadow="2"
     inkscape:pageopacity="0.0"
     inkscape:pagecheckerboard="0"
     showgrid="false"
     inkscape:zoom="34.625"
     inkscape:cx="12"
     inkscape:cy="11.98556"
     inkscape:window-width="1920"
     inkscape:window-height="1017"
     inkscape:window-x="-8"
     inkscape:window-y="-8"
     inkscape:window-maximized="1"
     inkscape:current-layer="svg931" />
  <path
     d="M12 2C6.5 2 2 6.5 2 12C2 17.5 6.5 22 12 22C17.5 22 22 17.5 22 12S17.5 2 12 2M17 13H11V7H12.5V11.5H17V13Z"
     id="path929" />
  <path
     style="fill:#ffffff;stroke-width:0.0288809"
     d="M 11.465704,21.974822 C 7.6052306,21.721659 4.2973084,19.382149 2.7930797,15.841155 2.2762786,14.624592 2.0255324,13.369744 2.0255324,12 c 0,-1.587969 0.3189048,-2.9535053 1.0218346,-4.3754513 C 3.5801853,6.5467186 4.1506697,5.7510013 4.9864485,4.9198983 6.3699506,3.5441367 8.1534926,2.5921466 10.064982,2.209161 10.747975,2.0723166 11.240972,2.0255324 12,2.0255324 c 1.587539,0 2.960549,0.320551 4.375451,1.0215186 1.063803,0.5270266 1.864327,1.0979374 2.671944,1.9055543 0.807617,0.8076171 1.378527,1.6081407 1.905554,2.6719434 C 21.654214,9.040052 21.973897,10.41011 21.973897,12 c 0,1.231513 -0.176625,2.237215 -0.601151,3.422945 -0.172525,0.481876 -0.609222,1.370031 -0.904344,1.83926 -1.638976,2.605885 -4.326954,4.308111 -7.356489,4.65867 -0.379091,0.04387 -1.326502,0.07491 -1.646209,0.05395 z m 5.559567,-9.729335 V 11.480144 H 14.772563 12.519856 V 9.2274368 6.9747292 H 11.754513 10.98917 V 9.9927798 13.01083 h 3.01805 3.018051 z"
     id="path984" />
</svg>
