<?xml version="1.0" encoding="UTF-8" standalone="no"?>
<svg
   viewBox="0 0 24 24"
   version="1.1"
   id="svg1084"
   sodipodi:docname="cog.svg"
   inkscape:version="1.1.2 (b8e25be833, 2022-02-05)"
   xmlns:inkscape="http://www.inkscape.org/namespaces/inkscape"
   xmlns:sodipodi="http://sodipodi.sourceforge.net/DTD/sodipodi-0.dtd"
   xmlns="http://www.w3.org/2000/svg"
   xmlns:svg="http://www.w3.org/2000/svg">
  <defs
     id="defs1088" />
  <sodipodi:namedview
     id="namedview1086"
     pagecolor="#ffffff"
     bordercolor="#666666"
     borderopacity="1.0"
     inkscape:pageshadow="2"
     inkscape:pageopacity="0.0"
     inkscape:pagecheckerboard="0"
     showgrid="false"
     inkscape:zoom="34.625"
     inkscape:cx="12"
     inkscape:cy="11.98556"
     inkscape:window-width="1920"
     inkscape:window-height="1017"
     inkscape:window-x="-8"
     inkscape:window-y="-8"
     inkscape:window-maximized="1"
     inkscape:current-layer="svg1084" />
  <path
     d="M12,15.5A3.5,3.5 0 0,1 8.5,12A3.5,3.5 0 0,1 12,8.5A3.5,3.5 0 0,1 15.5,12A3.5,3.5 0 0,1 12,15.5M19.43,12.97C19.47,12.65 19.5,12.33 19.5,12C19.5,11.67 19.47,11.34 19.43,11L21.54,9.37C21.73,9.22 21.78,8.95 21.66,8.73L19.66,5.27C19.54,5.05 19.27,4.96 19.05,5.05L16.56,6.05C16.04,5.66 15.5,5.32 14.87,5.07L14.5,2.42C14.46,2.18 14.25,2 14,2H10C9.75,2 9.54,2.18 9.5,2.42L9.13,5.07C8.5,5.32 7.96,5.66 7.44,6.05L4.95,5.05C4.73,4.96 4.46,5.05 4.34,5.27L2.34,8.73C2.21,8.95 2.27,9.22 2.46,9.37L4.57,11C4.53,11.34 4.5,11.67 4.5,12C4.5,12.33 4.53,12.65 4.57,12.97L2.46,14.63C2.27,14.78 2.21,15.05 2.34,15.27L4.34,18.73C4.46,18.95 4.73,19.03 4.95,18.95L7.44,17.94C7.96,18.34 8.5,18.68 9.13,18.93L9.5,21.58C9.54,21.82 9.75,22 10,22H14C14.25,22 14.46,21.82 14.5,21.58L14.87,18.93C15.5,18.67 16.04,18.34 16.56,17.94L19.05,18.95C19.27,19.03 19.54,18.95 19.66,18.73L21.66,15.27C21.78,15.05 21.73,14.78 21.54,14.63L19.43,12.97Z"
     id="path1082" />
  <path
     style="fill:#ffffff;stroke-width:0.0288809"
     d="M 9.8182998,21.938494 C 9.7001412,21.884821 9.5618816,21.746388 9.5337493,21.653586 9.5252968,21.625702 9.4399437,21.037545 9.344076,20.34657 9.1249921,18.767505 9.1511847,18.909545 9.074809,18.886363 9.0396208,18.875682 8.8558998,18.789843 8.6665401,18.69561 8.3136234,18.519982 7.9731962,18.310665 7.6355919,18.061713 L 7.4444687,17.920778 6.1915486,18.430066 C 4.8124934,18.990626 4.7353424,19.012303 4.534296,18.895714 4.4289884,18.834644 4.3255532,18.667891 3.3646209,17.010028 L 2.3104693,15.191336 V 15.01678 c 0,-0.113948 0.016634,-0.199942 0.047908,-0.247672 0.026349,-0.04021 0.5364344,-0.455526 1.1335225,-0.922917 L 4.5775142,12.99639 4.5559051,12.750903 C 4.528131,12.435378 4.5280597,11.570035 4.5557809,11.234657 L 4.5772652,10.974729 3.5060355,10.151625 C 2.9168596,9.698917 2.4077292,9.2907217 2.3746347,9.2445236 2.3384474,9.1940084 2.3093916,9.0993744 2.3017401,9.0071073 L 2.2890173,8.8536869 3.3496725,7.0187333 c 0.7609987,-1.3165424 1.0855787,-1.852701 1.1488737,-1.897771 0.054106,-0.038527 0.1450813,-0.067076 0.2352694,-0.073832 0.1352708,-0.010132 0.2476056,0.029617 1.4022875,0.4961981 0.6903804,0.2789672 1.2734022,0.507213 1.2956046,0.507213 0.022203,0 0.12666,-0.062182 0.232128,-0.1381834 C 8.0742645,5.6166 8.5688069,5.3294832 8.9457363,5.1681235 c 0.169635,-0.072619 0.1967218,-0.094721 0.209434,-0.1708913 0.00803,-0.048117 0.092868,-0.652828 0.1885276,-1.3438027 0.09566,-0.6909747 0.1875576,-1.2905309 0.2042166,-1.3323471 0.041053,-0.1030467 0.162443,-0.214759 0.2923131,-0.2690089 0.093718,-0.039148 0.3692404,-0.044773 2.1660654,-0.044219 1.934865,5.961e-4 2.065709,0.00382 2.175407,0.053652 0.126402,0.057416 0.264003,0.2013245 0.288506,0.3017302 0.0084,0.034516 0.09873,0.6588407 0.200676,1.3873885 0.101949,0.7285478 0.189278,1.3280165 0.194063,1.3321526 0.0048,0.00414 0.118414,0.055441 0.252507,0.1140109 0.318196,0.1389831 0.783043,0.4070325 1.136244,0.6552044 0.155418,0.1092014 0.299082,0.1985484 0.319254,0.1985484 0.02017,0 0.601316,-0.2282172 1.29143,-0.5071492 1.163358,-0.4702088 1.265677,-0.5063338 1.404718,-0.4959563 0.102147,0.00762 0.178697,0.033501 0.240077,0.081156 0.06182,0.047996 0.418261,0.6367172 1.135234,1.8750178 l 1.045122,1.8050542 v 0.1732852 c 0,0.1308381 -0.01514,0.1945088 -0.06182,0.2599278 -0.034,0.047653 -0.543963,0.4570397 -1.133248,0.909748 l -1.071427,0.823104 0.02133,0.259928 c 0.02744,0.334276 0.02749,1.19968 8.6e-5,1.516246 l -0.02125,0.245487 1.07121,0.837545 c 0.589165,0.46065 1.099087,0.876534 1.13316,0.924188 0.04684,0.0655 0.06195,0.128918 0.06195,0.259928 v 0.173285 l -1.054151,1.818738 c -0.961104,1.658202 -1.064349,1.824647 -1.169675,1.885686 -0.201508,0.116777 -0.278184,0.09522 -1.655848,-0.465608 L 16.55834,17.92068 16.322491,18.091417 c -0.342745,0.24812 -0.673561,0.446988 -1.059646,0.637001 -0.187016,0.09204 -0.354783,0.172264 -0.372816,0.178275 -0.02003,0.0067 -0.105109,0.527754 -0.218648,1.339122 -0.102223,0.730506 -0.192753,1.356433 -0.201176,1.390948 -0.0245,0.100406 -0.162104,0.244314 -0.288505,0.301731 -0.109753,0.04985 -0.23995,0.05302 -2.1817,0.05302 -1.94175,0 -2.0719477,-0.0032 -2.1817002,-0.05302 z m 2.8532432,-6.490553 c 1.423768,-0.268663 2.542387,-1.416645 2.796905,-2.870324 0.05316,-0.303613 0.04665,-0.911847 -0.01305,-1.219056 C 15.15121,9.7932049 13.917732,8.6703968 12.318295,8.5029262 11.727552,8.4410718 11.058806,8.5590651 10.505625,8.8227529 9.3619425,9.3679177 8.6368052,10.403088 8.5029262,11.681705 c -0.1046076,0.999061 0.2775382,2.063226 1.0021869,2.790797 0.5902789,0.59266 1.3647289,0.955074 2.2060779,1.032365 0.208087,0.01911 0.717344,-0.01107 0.960352,-0.05693 z"
     id="path1164" />
</svg>
