<?xml version="1.0" encoding="UTF-8" standalone="no"?>
<svg
   viewBox="0 0 24 24"
   version="1.1"
   id="svg1728"
   sodipodi:docname="help-box.svg"
   inkscape:version="1.1.2 (b8e25be833, 2022-02-05)"
   xmlns:inkscape="http://www.inkscape.org/namespaces/inkscape"
   xmlns:sodipodi="http://sodipodi.sourceforge.net/DTD/sodipodi-0.dtd"
   xmlns="http://www.w3.org/2000/svg"
   xmlns:svg="http://www.w3.org/2000/svg">
  <defs
     id="defs1732" />
  <sodipodi:namedview
     id="namedview1730"
     pagecolor="#ffffff"
     bordercolor="#666666"
     borderopacity="1.0"
     inkscape:pageshadow="2"
     inkscape:pageopacity="0.0"
     inkscape:pagecheckerboard="0"
     showgrid="false"
     inkscape:zoom="34.625"
     inkscape:cx="12"
     inkscape:cy="11.98556"
     inkscape:window-width="1920"
     inkscape:window-height="1017"
     inkscape:window-x="-8"
     inkscape:window-y="-8"
     inkscape:window-maximized="1"
     inkscape:current-layer="svg1728" />
  <path
     d="M11,18H13V16H11V18M12,6A4,4 0 0,0 8,10H10A2,2 0 0,1 12,8A2,2 0 0,1 14,10C14,12 11,11.75 11,15H13C13,12.75 16,12.5 16,10A4,4 0 0,0 12,6M5,3H19A2,2 0 0,1 21,5V19A2,2 0 0,1 19,21H5A2,2 0 0,1 3,19V5A2,2 0 0,1 5,3Z"
     id="path1726" />
  <path
     style="fill:#ffffff;stroke-width:0.0288809"
     d="M 4.5920578,20.939379 C 3.9049052,20.787439 3.3537895,20.291862 3.1138177,19.610108 L 3.032491,19.379061 V 12.01444 4.6498195 L 3.1163093,4.3940836 C 3.3127452,3.7947431 3.7731843,3.3320688 4.3901689,3.1140399 L 4.6209386,3.032491 h 7.3646214 7.364621 l 0.255736,0.083818 c 0.59934,0.1964359 1.062014,0.656875 1.280043,1.2738596 l 0.08155,0.2307697 V 12 19.379061 l -0.08155,0.23077 c -0.214728,0.607645 -0.669238,1.06529 -1.264265,1.272986 l -0.242634,0.08469 -7.306859,0.0051 c -5.9788541,0.0042 -7.3383532,-0.0019 -7.4801442,-0.03322 z M 13.01083,16.99639 V 15.98556 H 12 10.98917 v 1.01083 1.01083 H 12 13.01083 Z m 0.01177,-2.187726 c 0.029,-0.286272 0.09343,-0.5125 0.22003,-0.772563 0.204056,-0.419169 0.457274,-0.703873 1.274269,-1.432714 0.743671,-0.663429 1.024018,-0.993691 1.252028,-1.474949 0.183757,-0.387855 0.226969,-0.609628 0.226907,-1.1645391 C 15.995778,9.5694524 15.983652,9.4177687 15.934088,9.192385 15.683958,8.0549516 15.011675,7.118549 14.024508,6.5325909 13.604606,6.283347 13.051523,6.0942007 12.523998,6.0194388 12.217376,5.9759835 11.484265,6.0011188 11.191336,6.0651298 9.9755064,6.3308142 8.9807977,7.0910599 8.4256661,8.1789031 8.1753279,8.6694692 8.0355128,9.1737083 7.9967902,9.7256318 L 7.9770339,10.00722 H 8.9877505 9.998467 l 0.034837,-0.2490233 c 0.06469,-0.4624191 0.255978,-0.8459125 0.581678,-1.1661389 0.22956,-0.2257023 0.481756,-0.3791801 0.79296,-0.482569 0.200694,-0.066675 0.278474,-0.076759 0.592058,-0.076759 0.313584,0 0.391364,0.010084 0.592058,0.076759 1.02551,0.3406969 1.615097,1.4217652 1.311485,2.4047452 -0.122572,0.396844 -0.423332,0.735375 -1.167081,1.31365 -0.739488,0.574962 -1.051792,0.898392 -1.323518,1.370672 -0.239775,0.416746 -0.423774,1.123722 -0.423774,1.628255 v 0.176799 h 1.006842 1.006842 z"
     id="path1808" />
</svg>
