<?xml version="1.0" encoding="UTF-8" standalone="no"?>
<svg
   viewBox="0 0 24 24"
   version="1.1"
   id="svg2041"
   sodipodi:docname="message-reply.svg"
   inkscape:version="1.1.2 (b8e25be833, 2022-02-05)"
   xmlns:inkscape="http://www.inkscape.org/namespaces/inkscape"
   xmlns:sodipodi="http://sodipodi.sourceforge.net/DTD/sodipodi-0.dtd"
   xmlns="http://www.w3.org/2000/svg"
   xmlns:svg="http://www.w3.org/2000/svg">
  <defs
     id="defs2045" />
  <sodipodi:namedview
     id="namedview2043"
     pagecolor="#ffffff"
     bordercolor="#666666"
     borderopacity="1.0"
     inkscape:pageshadow="2"
     inkscape:pageopacity="0.0"
     inkscape:pagecheckerboard="0"
     showgrid="false"
     inkscape:zoom="34.625"
     inkscape:cx="12"
     inkscape:cy="11.98556"
     inkscape:window-width="1920"
     inkscape:window-height="1017"
     inkscape:window-x="-8"
     inkscape:window-y="-8"
     inkscape:window-maximized="1"
     inkscape:current-layer="svg2041" />
  <path
     d="M22,4C22,2.89 21.1,2 20,2H4A2,2 0 0,0 2,4V16A2,2 0 0,0 4,18H18L22,22V4Z"
     id="path2039" />
  <path
     style="fill:#ffffff;stroke-width:0.0288809"
     d="m 19.985638,19.971205 -1.992701,-1.992866 h -7.121813 c -6.9892631,0 -7.1259492,-0.0011 -7.3440989,-0.05685 C 3.2325629,17.846177 2.8918174,17.665441 2.6758788,17.470028 2.4713545,17.284944 2.2415034,16.954758 2.1512245,16.716351 2.0009575,16.319529 2.0056815,16.556097 2.0146357,9.8763142 2.0225615,3.9637653 2.0254686,3.6596112 2.0756335,3.4945848 2.2891124,2.7923076 2.8153268,2.2717309 3.5113347,2.0742654 3.6887465,2.0239316 4.0551999,2.0216606 12,2.0216606 c 7.971686,0 8.310725,0.00212 8.490481,0.053075 0.697438,0.1977049 1.21911,0.7142369 1.433978,1.4198489 0.05045,0.1656811 0.05312,0.5129383 0.06086,7.9133575 0.0045,4.25704 0.0047,8.373685 5.58e-4,9.148101 l -0.0075,1.408029 z"
     id="path2121" />
</svg>
